<svg xmlns="http://www.w3.org/2000/svg" xmlns:xlink="http://www.w3.org/1999/xlink" width="500" zoomAndPan="magnify" viewBox="0 0 375 374.999991" height="500" preserveAspectRatio="xMidYMid meet" version="1.0">
  <defs>
    <clipPath id="46f28b0446">
      <path d="M 90.707031 93 L 282.707031 93 L 282.707031 284.992188 L 90.707031 284.992188 Z M 90.707031 93 " clip-rule="nonzero"/>
    </clipPath>
    <clipPath id="184739199c">
      <path d="M 140 87.742188 L 232 87.742188 L 232 263 L 140 263 Z M 140 87.742188 " clip-rule="nonzero"/>
    </clipPath>
  </defs>
  <rect x="-37.5" width="450" fill="#320604" y="-37.499999" height="449.999989" fill-opacity="1"/>
  <path d="M 186.707031 93.742188 C 132.707031 93.742188 90.707031 135.742188 90.707031 189.742188 C 90.707031 243.742188 132.707031 285.742188 186.707031 285.742188 C 240.707031 285.742188 282.707031 243.742188 282.707031 189.742188 C 282.707031 135.742188 240.707031 93.742188 186.707031 93.742188 Z M 186.707031 263.742188 C 144.707031 263.742188 112.707031 231.742188 112.707031 189.742188 C 112.707031 147.742188 144.707031 115.742188 186.707031 115.742188 C 228.707031 115.742188 260.707031 147.742188 260.707031 189.742188 C 260.707031 231.742188 228.707031 263.742188 186.707031 263.742188 Z M 231.707031 208.742188 L 141.707031 208.742188 C 140.707031 208.742188 139.707031 209.742188 139.707031 210.742188 C 139.707031 211.742188 140.707031 212.742188 141.707031 212.742188 L 231.707031 212.742188 C 232.707031 212.742188 233.707031 211.742188 233.707031 210.742188 C 233.707031 209.742188 232.707031 208.742188 231.707031 208.742188 Z M 141.707031 170.742188 L 231.707031 170.742188 C 232.707031 170.742188 233.707031 169.742188 233.707031 168.742188 C 233.707031 167.742188 232.707031 166.742188 231.707031 166.742188 L 141.707031 166.742188 C 140.707031 166.742188 139.707031 167.742188 139.707031 168.742188 C 139.707031 169.742188 140.707031 170.742188 141.707031 170.742188 Z" fill="#d9d9d9"/>
</svg>